<?xml version="1.0" encoding="UTF-8" standalone="no"?>
<!DOCTYPE svg PUBLIC "-//W3C//DTD SVG 1.1//EN" "http://www.w3.org/Graphics/SVG/1.1/DTD/svg11.dtd">
<svg width="100%" height="100%" viewBox="0 0 700 700" version="1.1" xmlns="http://www.w3.org/2000/svg" xmlns:xlink="http://www.w3.org/1999/xlink" xml:space="preserve" xmlns:serif="http://www.serif.com/" style="fill-rule:evenodd;clip-rule:evenodd;stroke-linejoin:round;stroke-miterlimit:2;">
    <g transform="matrix(1,0,0,1,-1493.624505,-47.612084)">
        <g transform="matrix(1.283386,0,0,1.283386,1197.788282,19.914828)">
            <g transform="matrix(0.744186,0,0,0.744186,12.465806,-5.209302)">
                <path d="M293,477.863L293,219.158C293,118.071 375.071,36 476.158,36L842.475,36C943.563,36 1025.634,118.071 1025.634,219.158L1025.634,394.151C1014.566,406.206 995.478,424.155 975.53,429.538C969.276,431.226 976.09,386.075 929.74,365.963C903.516,354.584 879.458,371.989 875.926,374.544C872.781,376.82 864.081,360.57 834.979,382.32C774.625,427.428 779.057,489.69 776.236,494.192C748.596,538.308 683.373,573.699 650.357,542.975C644.938,537.932 732.252,495.813 738.551,421.936C745.769,337.267 609.564,342.475 588.269,468.96C582.498,503.242 595.763,530.529 592.264,532.932C590.618,534.063 545.852,560.094 517.531,553.093C512.245,551.786 487.249,545.607 470.489,503.902C466.051,492.86 473.822,495.849 484.981,491.457C602.274,445.294 550.294,323.789 455.782,380.649C435.697,392.733 414.502,418.419 406.819,431.051C405.98,432.431 405.85,432.443 405.707,432.457C404.342,432.585 405.061,431.217 403.817,431.334C411.532,409.337 424.354,415.854 476.846,330.473C547.505,215.542 504.286,151.851 446.264,174.967C376.447,202.782 379.346,404.139 366.505,417.57C338.054,447.327 312.522,465.236 293,477.863M293,519.511C336.162,494.298 360.062,467.497 359.87,473.079C359.386,487.149 336.377,572.808 346.824,583.15C357.703,593.919 378.675,590.908 383.403,573.939C384.526,569.907 413.942,431.846 485.39,403.815C520.971,389.856 528.855,433.99 475.472,456.352C447.362,468.127 405.892,460.975 438.725,529.219C476.956,608.681 548.745,588.527 558.976,585.654C589.308,577.139 611.787,560.931 614.882,563.749C697.19,638.672 782.531,538.265 785.785,540.621C788.673,542.712 795.29,579.02 845.207,588.928C889.814,597.782 949.901,564.773 969.617,480.951C972.132,470.26 969.464,467.42 979.765,464.023C997.982,458.015 1013.274,450.047 1025.634,441.469L1025.634,585.475C1025.634,686.563 943.563,768.634 842.475,768.634L476.158,768.634C375.071,768.634 293,686.563 293,585.475M816.909,493.2C817.338,485.999 820.164,438.64 854.768,411.357C861.685,405.904 860.792,412.118 860.911,415.306C861.516,431.522 876.94,464.005 925.865,469.234C936.344,470.354 930.832,477.589 930.171,479.839C908.487,553.604 866.849,552.616 858.703,552.422C816.077,551.411 817.455,504.074 816.909,493.2ZM421.46,319.775C421.952,316.433 424.2,301.138 428.289,278.107C440.672,208.37 472.153,191.341 477.366,216.322C487.17,263.306 425.672,347.164 417.434,359.625C413.291,365.892 418.107,342.078 421.46,319.775ZM916.615,397.364C937.814,406.188 937.12,435.905 934.059,435.997C897.274,437.103 879.121,390.687 916.615,397.364ZM628.439,468.921C628.499,468.705 634.221,423.955 669.175,404.419C708.08,382.675 728.448,441.864 632.595,508.745C629.968,510.578 623.608,508.971 628.439,468.921Z" style="fill:rgb(0,226,247);"/>
            </g>
        </g>
    </g>
</svg>
