<?xml version="1.0" encoding="UTF-8" standalone="no"?>
<!DOCTYPE svg PUBLIC "-//W3C//DTD SVG 1.1//EN" "http://www.w3.org/Graphics/SVG/1.1/DTD/svg11.dtd">
<svg width="100%" height="100%" viewBox="0 0 811 422" version="1.1" xmlns="http://www.w3.org/2000/svg" xmlns:xlink="http://www.w3.org/1999/xlink" xml:space="preserve" xmlns:serif="http://www.serif.com/" style="fill-rule:evenodd;clip-rule:evenodd;stroke-linejoin:round;stroke-miterlimit:2;">
    <g transform="matrix(1,0,0,1,-53.680812,-148.262853)">
        <g transform="matrix(1,0,0,1,1219,293)">
            <g transform="matrix(1.34375,0,0,1.34375,-1436.067898,-278)">
                <path d="M312.981,293.458C313.907,293.371 313.372,294.389 314.387,294.293C314.494,294.283 314.59,294.274 315.215,293.248C320.933,283.847 336.706,264.731 351.652,255.739C421.987,213.424 460.669,303.847 373.382,338.201C365.078,341.469 359.294,339.245 362.597,347.462C375.069,378.498 393.671,383.097 397.605,384.069C418.682,389.28 451.996,369.908 453.221,369.066C455.824,367.277 445.952,346.97 450.248,321.458C466.095,227.33 567.457,223.455 562.085,286.464C557.398,341.442 492.419,372.787 496.452,376.539C521.022,399.404 569.561,373.067 590.13,340.236C592.229,336.885 588.931,290.551 633.845,256.983C655.503,240.796 661.977,252.889 664.318,251.196C666.946,249.294 684.85,236.341 704.366,244.81C738.859,259.777 733.787,293.377 738.442,292.121C759.829,286.35 779.889,261.167 782.684,257.658C788.954,249.787 800.862,251.771 804.362,261.54C807.943,271.537 786.951,302.826 741.593,317.785C733.927,320.313 735.913,322.426 734.041,330.382C719.369,392.761 674.653,417.326 641.457,410.737C604.31,403.364 599.385,376.344 597.236,374.788C594.814,373.035 531.305,447.756 470.053,391.999C467.749,389.902 451.021,401.964 428.448,408.301C420.834,410.439 367.41,425.437 338.959,366.302C314.525,315.516 345.386,320.839 366.305,312.076C406.032,295.435 400.165,262.59 373.686,272.979C320.516,293.839 298.625,396.582 297.789,399.582C294.27,412.211 278.664,414.451 270.568,406.437C262.793,398.741 279.916,334.995 280.276,324.524C280.428,320.086 260.113,343.159 223.713,362.908C222.215,363.721 207.776,371.554 202.69,359.422C194.051,338.814 233.038,337.786 285.214,283.215C294.77,273.22 292.612,123.372 344.569,102.673C387.748,85.471 419.911,132.868 367.328,218.398C328.264,281.937 318.722,277.088 312.981,293.458ZM326.111,210.437C323.615,227.035 320.031,244.757 323.114,240.093C329.245,230.819 375.011,168.414 367.715,133.449C363.836,114.858 340.408,127.531 331.193,179.429C328.149,196.568 326.476,207.95 326.111,210.437ZM694.598,268.178C666.695,263.209 680.204,297.751 707.58,296.928C709.857,296.859 710.374,274.744 694.598,268.178ZM480.142,321.43C476.546,351.234 481.279,352.43 483.234,351.066C554.566,301.294 539.409,257.247 510.457,273.428C484.444,287.967 480.186,321.268 480.142,321.43ZM620.398,339.498C620.804,347.59 619.779,382.817 651.5,383.57C657.563,383.714 688.549,384.449 704.686,329.555C705.178,327.88 709.28,322.496 701.481,321.663C665.073,317.771 653.594,293.598 653.144,281.53C653.055,279.158 653.72,274.533 648.573,278.591C622.82,298.895 620.718,334.139 620.398,339.498Z" style="fill:white;"/>
            </g>
        </g>
    </g>
</svg>
